<svg xmlns="http://www.w3.org/2000/svg" data-v-d3f97b9e="" viewBox="0 0 470 90">
    <g id="1f1ba97b-966d-4b8d-9cc0-71af720531cd" fill="#ffffff" data-v-d3f97b9e="" transform="matrix(5.612721889848748,0,0,5.612721889848748,102.87185619480147,-1.5575315116192954)">
        <path d="M5.24 6.06L5.24 6.06Q6.65 6.06 7.48 6.88L7.48 6.88L7.48 6.88Q8.32 7.70 8.32 9.28L8.32 9.28L8.32 13.55L6.97 13.55L6.97 9.44L6.97 9.44Q6.97 8.36 6.45 7.81L6.45 7.81L6.45 7.81Q5.94 7.27 4.97 7.27L4.97 7.27L4.97 7.27Q3.88 7.27 3.25 7.90L3.25 7.90L3.25 7.90Q2.62 8.54 2.62 9.73L2.62 9.73L2.62 13.55L1.27 13.55L1.27 3.16L2.62 3.16L2.62 7.18L2.62 7.18Q3.04 6.65 3.72 6.36L3.72 6.36L3.72 6.36Q4.40 6.06 5.24 6.06L5.24 6.06ZM13.99 13.64L13.99 13.64Q12.88 13.64 12.00 13.15L12.00 13.15L12.00 13.15Q11.12 12.66 10.62 11.79L10.62 11.79L10.62 11.79Q10.12 10.93 10.12 9.84L10.12 9.84L10.12 9.84Q10.12 8.75 10.62 7.89L10.62 7.89L10.62 7.89Q11.12 7.03 12.00 6.54L12.00 6.54L12.00 6.54Q12.88 6.06 13.99 6.06L13.99 6.06L13.99 6.06Q15.09 6.06 15.97 6.54L15.97 6.54L15.97 6.54Q16.84 7.03 17.34 7.89L17.34 7.89L17.34 7.89Q17.84 8.75 17.84 9.84L17.84 9.84L17.84 9.84Q17.84 10.93 17.34 11.79L17.34 11.79L17.34 11.79Q16.84 12.66 15.97 13.15L15.97 13.15L15.97 13.15Q15.09 13.64 13.99 13.64L13.99 13.64ZM13.99 12.46L13.99 12.46Q14.70 12.46 15.27 12.13L15.27 12.13L15.27 12.13Q15.83 11.80 16.16 11.21L16.16 11.21L16.16 11.21Q16.48 10.61 16.48 9.84L16.48 9.84L16.48 9.84Q16.48 9.07 16.16 8.48L16.16 8.48L16.16 8.48Q15.83 7.88 15.27 7.56L15.27 7.56L15.27 7.56Q14.70 7.24 13.99 7.24L13.99 7.24L13.99 7.24Q13.27 7.24 12.71 7.56L12.71 7.56L12.71 7.56Q12.14 7.88 11.81 8.48L11.81 8.48L11.81 8.48Q11.48 9.07 11.48 9.84L11.48 9.84L11.48 9.84Q11.48 10.61 11.81 11.21L11.81 11.21L11.81 11.21Q12.14 11.80 12.71 12.13L12.71 12.13L12.71 12.13Q13.27 12.46 13.99 12.46L13.99 12.46ZM20.99 7.38L20.99 7.38Q21.34 6.73 22.02 6.40L22.02 6.40L22.02 6.40Q22.71 6.06 23.69 6.06L23.69 6.06L23.69 7.36L23.69 7.36Q23.58 7.35 23.38 7.35L23.38 7.35L23.38 7.35Q22.29 7.35 21.66 8.00L21.66 8.00L21.66 8.00Q21.04 8.65 21.04 9.86L21.04 9.86L21.04 13.55L19.70 13.55L19.70 6.13L20.99 6.13L20.99 7.38ZM28.14 6.06L28.14 6.06Q29.68 6.06 30.50 6.82L30.50 6.82L30.50 6.82Q31.32 7.57 31.32 9.07L31.32 9.07L31.32 13.55L30.04 13.55L30.04 12.57L30.04 12.57Q29.71 13.09 29.09 13.36L29.09 13.36L29.09 13.36Q28.46 13.64 27.61 13.64L27.61 13.64L27.61 13.64Q26.36 13.64 25.61 13.03L25.61 13.03L25.61 13.03Q24.86 12.43 24.86 11.45L24.86 11.45L24.86 11.45Q24.86 10.47 25.58 9.88L25.58 9.88L25.58 9.88Q26.29 9.28 27.85 9.28L27.85 9.28L29.97 9.28L29.97 9.02L29.97 9.02Q29.97 8.15 29.47 7.69L29.47 7.69L29.47 7.69Q28.97 7.22 27.99 7.22L27.99 7.22L27.99 7.22Q27.33 7.22 26.70 7.44L26.70 7.44L26.70 7.44Q26.07 7.66 25.63 8.02L25.63 8.02L25.07 7.01L25.07 7.01Q25.65 6.55 26.45 6.31L26.45 6.31L26.45 6.31Q27.24 6.06 28.14 6.06L28.14 6.06ZM27.83 12.60L27.83 12.60Q28.60 12.60 29.16 12.26L29.16 12.26L29.16 12.26Q29.72 11.91 29.97 11.28L29.97 11.28L29.97 10.25L27.90 10.25L27.90 10.25Q26.19 10.25 26.19 11.40L26.19 11.40L26.19 11.40Q26.19 11.96 26.63 12.28L26.63 12.28L26.63 12.28Q27.06 12.60 27.83 12.60L27.83 12.60ZM35.10 7.38L35.10 7.38Q35.45 6.73 36.13 6.40L36.13 6.40L36.13 6.40Q36.82 6.06 37.80 6.06L37.80 6.06L37.80 7.36L37.80 7.36Q37.69 7.35 37.49 7.35L37.49 7.35L37.49 7.35Q36.40 7.35 35.78 8.00L35.78 8.00L35.78 8.00Q35.15 8.65 35.15 9.86L35.15 9.86L35.15 13.55L33.81 13.55L33.81 6.13L35.10 6.13L35.10 7.38ZM39.55 13.55L39.55 6.13L40.89 6.13L40.89 13.55L39.55 13.55ZM40.22 4.70L40.22 4.70Q39.83 4.70 39.57 4.45L39.57 4.45L39.57 4.45Q39.31 4.20 39.31 3.84L39.31 3.84L39.31 3.84Q39.31 3.47 39.57 3.21L39.57 3.21L39.57 3.21Q39.83 2.95 40.22 2.95L40.22 2.95L40.22 2.95Q40.61 2.95 40.87 3.20L40.87 3.20L40.87 3.20Q41.13 3.44 41.13 3.81L41.13 3.81L41.13 3.81Q41.13 4.19 40.87 4.45L40.87 4.45L40.87 4.45Q40.61 4.70 40.22 4.70L40.22 4.70ZM49.03 6.13L50.37 6.13L50.37 13.55L49.10 13.55L49.10 12.43L49.10 12.43Q48.69 13.01 48.03 13.32L48.03 13.32L48.03 13.32Q47.36 13.64 46.58 13.64L46.58 13.64L46.58 13.64Q45.09 13.64 44.24 12.82L44.24 12.82L44.24 12.82Q43.39 12.00 43.39 10.40L43.39 10.40L43.39 6.13L44.73 6.13L44.73 10.25L44.73 10.25Q44.73 11.33 45.25 11.88L45.25 11.88L45.25 11.88Q45.77 12.43 46.73 12.43L46.73 12.43L46.73 12.43Q47.80 12.43 48.41 11.79L48.41 11.79L48.41 11.79Q49.03 11.14 49.03 9.97L49.03 9.97L49.03 6.13ZM62.22 6.06L62.22 6.06Q63.62 6.06 64.44 6.87L64.44 6.87L64.44 6.87Q65.25 7.69 65.25 9.28L65.25 9.28L65.25 13.55L63.91 13.55L63.91 9.44L63.91 9.44Q63.91 8.36 63.41 7.81L63.41 7.81L63.41 7.81Q62.92 7.27 61.99 7.27L61.99 7.27L61.99 7.27Q60.97 7.27 60.37 7.90L60.37 7.90L60.37 7.90Q59.77 8.54 59.77 9.73L59.77 9.73L59.77 13.55L58.42 13.55L58.42 9.44L58.42 9.44Q58.42 8.36 57.93 7.81L57.93 7.81L57.93 7.81Q57.43 7.27 56.50 7.27L56.50 7.27L56.50 7.27Q55.48 7.27 54.88 7.90L54.88 7.90L54.88 7.90Q54.28 8.54 54.28 9.73L54.28 9.73L54.28 13.55L52.93 13.55L52.93 6.13L54.22 6.13L54.22 7.24L54.22 7.24Q54.63 6.66 55.29 6.36L55.29 6.36L55.29 6.36Q55.94 6.06 56.78 6.06L56.78 6.06L56.78 6.06Q57.65 6.06 58.32 6.41L58.32 6.41L58.32 6.41Q59.00 6.76 59.36 7.43L59.36 7.43L59.36 7.43Q59.78 6.79 60.53 6.43L60.53 6.43L60.53 6.43Q61.28 6.06 62.22 6.06L62.22 6.06Z"/>
    </g>
    <g id="688627ac-1bf0-457a-a977-0137b5687741" fill="#14D9D9" stroke="none" data-v-d3f97b9e="" transform="matrix(1,0,0,1,-5,-4)">
        <path d="M47.8 13.1c7.6 14.8 21.8 25.2 38.1 28.1C86.6 44 87 47 87 50c0 20.4-16.6 37-37 37S13 70.4 13 50c0-19.7 15.4-35.8 34.8-36.9M50 5C25.1 5 5 25.1 5 50s20.1 45 45 45 45-20.1 45-45c0-5.7-1.1-11.2-3-16.2-17.8-1.2-32.8-12.7-39-28.7-1-.1-2-.1-3-.1z"/>
        <path d="M30 34c-2.5 0-4.5 2-4.5 4.5s2 4.5 4.5 4.5 4.5-2 4.5-4.5-2-4.5-4.5-4.5zM39 45c-2.5 0-4.5 2-4.5 4.5s2 4.5 4.5 4.5 4.5-2 4.5-4.5-2-4.5-4.5-4.5zM28.1 46.9c-1.4 0-2.6 1.2-2.6 2.6s1.2 2.6 2.6 2.6 2.6-1.2 2.6-2.6-1.2-2.6-2.6-2.6z"/>
    </g>
</svg>
